<mxfile modified="2024-06-04T09:05:42.958Z" host="app.diagrams.net" agent="Mozilla/5.0 (Windows NT 10.0; Win64; x64; rv:126.0) Gecko/20100101 Firefox/126.0" etag="CWWszfSfiq8aZ0PVWPSg" version="24.4.13" type="device">
  <diagram id="Ht1M8jgEwFfnCIfOTk4-" name="Page-1">
    <mxGraphModel dx="1969" dy="965" grid="1" gridSize="10" guides="1" tooltips="1" connect="1" arrows="1" fold="1" page="1" pageScale="1" pageWidth="1169" pageHeight="827" math="0" shadow="0">
      <root>
        <mxCell id="0" />
        <mxCell id="1" parent="0" />
        <mxCell id="UEzPUAAOIrF-is8g5C7q-74" value="AWS Cloud" style="points=[[0,0],[0.25,0],[0.5,0],[0.75,0],[1,0],[1,0.25],[1,0.5],[1,0.75],[1,1],[0.75,1],[0.5,1],[0.25,1],[0,1],[0,0.75],[0,0.5],[0,0.25]];outlineConnect=0;gradientColor=none;html=1;whiteSpace=wrap;fontSize=12;fontStyle=0;shape=mxgraph.aws4.group;grIcon=mxgraph.aws4.group_aws_cloud_alt;strokeColor=#232F3E;fillColor=none;verticalAlign=top;align=left;spacingLeft=30;fontColor=#232F3E;dashed=0;labelBackgroundColor=#ffffff;container=0;pointerEvents=0;collapsible=0;recursiveResize=0;" parent="1" vertex="1">
          <mxGeometry x="290" y="190" width="680" height="610" as="geometry" />
        </mxCell>
        <mxCell id="B8dhtAWKyEaFYcLBXjtr-7" value="Public subnet" style="points=[[0,0],[0.25,0],[0.5,0],[0.75,0],[1,0],[1,0.25],[1,0.5],[1,0.75],[1,1],[0.75,1],[0.5,1],[0.25,1],[0,1],[0,0.75],[0,0.5],[0,0.25]];outlineConnect=0;gradientColor=none;html=1;whiteSpace=wrap;fontSize=12;fontStyle=0;container=1;pointerEvents=0;collapsible=0;recursiveResize=0;shape=mxgraph.aws4.group;grIcon=mxgraph.aws4.group_security_group;grStroke=0;strokeColor=#7AA116;fillColor=#F2F6E8;verticalAlign=top;align=left;spacingLeft=30;fontColor=#248814;dashed=0;" parent="1" vertex="1">
          <mxGeometry x="490" y="340" width="270" height="201" as="geometry" />
        </mxCell>
        <mxCell id="JfajqlHU-OUBNJgmzbXL-9" value="&lt;div&gt;EC2&lt;br&gt;&lt;/div&gt;&lt;div&gt;（Next.js）&lt;br&gt;&lt;/div&gt;" style="text;strokeColor=none;align=center;fillColor=none;html=1;verticalAlign=middle;whiteSpace=wrap;rounded=0;" vertex="1" parent="B8dhtAWKyEaFYcLBXjtr-7">
          <mxGeometry x="60" y="41" width="60" height="30" as="geometry" />
        </mxCell>
        <mxCell id="JfajqlHU-OUBNJgmzbXL-1" value="&lt;div&gt;EC2&lt;br&gt;&lt;/div&gt;&lt;div&gt;（Laravel）&lt;br&gt;&lt;/div&gt;" style="text;strokeColor=none;align=center;fillColor=none;html=1;verticalAlign=middle;whiteSpace=wrap;rounded=0;" vertex="1" parent="B8dhtAWKyEaFYcLBXjtr-7">
          <mxGeometry x="60" y="130" width="60" height="30" as="geometry" />
        </mxCell>
        <mxCell id="JfajqlHU-OUBNJgmzbXL-8" value="" style="outlineConnect=0;dashed=0;verticalLabelPosition=bottom;verticalAlign=top;align=center;html=1;shape=mxgraph.aws3.ec2;fillColor=#F58534;gradientColor=none;" vertex="1" parent="B8dhtAWKyEaFYcLBXjtr-7">
          <mxGeometry x="125" y="31" width="46.5" height="50" as="geometry" />
        </mxCell>
        <mxCell id="B8dhtAWKyEaFYcLBXjtr-11" value="Private subnet" style="points=[[0,0],[0.25,0],[0.5,0],[0.75,0],[1,0],[1,0.25],[1,0.5],[1,0.75],[1,1],[0.75,1],[0.5,1],[0.25,1],[0,1],[0,0.75],[0,0.5],[0,0.25]];outlineConnect=0;gradientColor=none;html=1;whiteSpace=wrap;fontSize=12;fontStyle=0;container=1;pointerEvents=0;collapsible=0;recursiveResize=0;shape=mxgraph.aws4.group;grIcon=mxgraph.aws4.group_security_group;grStroke=0;strokeColor=#00A4A6;fillColor=#E6F6F7;verticalAlign=top;align=left;spacingLeft=30;fontColor=#147EBA;dashed=0;" parent="1" vertex="1">
          <mxGeometry x="490" y="570" width="270" height="130" as="geometry" />
        </mxCell>
        <mxCell id="JfajqlHU-OUBNJgmzbXL-10" value="" style="outlineConnect=0;dashed=0;verticalLabelPosition=bottom;verticalAlign=top;align=center;html=1;shape=mxgraph.aws3.rds;fillColor=#2E73B8;gradientColor=none;" vertex="1" parent="B8dhtAWKyEaFYcLBXjtr-11">
          <mxGeometry x="123" y="32.75" width="50" height="55.5" as="geometry" />
        </mxCell>
        <mxCell id="JfajqlHU-OUBNJgmzbXL-12" value="&lt;div&gt;RDS&lt;br&gt;&lt;/div&gt;&lt;div&gt;（MySQL）&lt;br&gt;&lt;/div&gt;" style="text;strokeColor=none;align=center;fillColor=none;html=1;verticalAlign=middle;whiteSpace=wrap;rounded=0;" vertex="1" parent="B8dhtAWKyEaFYcLBXjtr-11">
          <mxGeometry x="60" y="45.5" width="60" height="30" as="geometry" />
        </mxCell>
        <mxCell id="B8dhtAWKyEaFYcLBXjtr-12" value="" style="sketch=0;outlineConnect=0;fontColor=#232F3E;gradientColor=none;strokeColor=#232F3E;fillColor=#ffffff;dashed=0;verticalLabelPosition=bottom;verticalAlign=top;align=center;html=1;fontSize=12;fontStyle=0;aspect=fixed;shape=mxgraph.aws4.resourceIcon;resIcon=mxgraph.aws4.internet_gateway;" parent="1" vertex="1">
          <mxGeometry x="608.25" y="230" width="60" height="60" as="geometry" />
        </mxCell>
        <mxCell id="JfajqlHU-OUBNJgmzbXL-14" value="" style="outlineConnect=0;dashed=0;verticalLabelPosition=bottom;verticalAlign=top;align=center;html=1;shape=mxgraph.aws3.s3;fillColor=#E05243;gradientColor=none;" vertex="1" parent="1">
          <mxGeometry x="800" y="361" width="70" height="70" as="geometry" />
        </mxCell>
        <mxCell id="JfajqlHU-OUBNJgmzbXL-16" value="" style="endArrow=classic;html=1;rounded=0;exitX=0;exitY=0.5;exitDx=0;exitDy=0;exitPerimeter=0;entryX=1;entryY=0.5;entryDx=0;entryDy=0;entryPerimeter=0;" edge="1" parent="1" source="JfajqlHU-OUBNJgmzbXL-14" target="JfajqlHU-OUBNJgmzbXL-8">
          <mxGeometry width="50" height="50" relative="1" as="geometry">
            <mxPoint x="687" y="493" as="sourcePoint" />
            <mxPoint x="877" y="423" as="targetPoint" />
          </mxGeometry>
        </mxCell>
        <mxCell id="JfajqlHU-OUBNJgmzbXL-17" value="S3" style="text;strokeColor=none;align=center;fillColor=none;html=1;verticalAlign=middle;whiteSpace=wrap;rounded=0;" vertex="1" parent="1">
          <mxGeometry x="805" y="430" width="60" height="30" as="geometry" />
        </mxCell>
        <mxCell id="JfajqlHU-OUBNJgmzbXL-21" style="edgeStyle=orthogonalEdgeStyle;rounded=0;orthogonalLoop=1;jettySize=auto;html=1;exitX=0.5;exitY=1;exitDx=0;exitDy=0;" edge="1" parent="1" source="JfajqlHU-OUBNJgmzbXL-19" target="B8dhtAWKyEaFYcLBXjtr-12">
          <mxGeometry relative="1" as="geometry">
            <Array as="points">
              <mxPoint x="350" y="175" />
              <mxPoint x="620" y="175" />
            </Array>
          </mxGeometry>
        </mxCell>
        <mxCell id="JfajqlHU-OUBNJgmzbXL-19" value="" style="shape=actor;whiteSpace=wrap;html=1;" vertex="1" parent="1">
          <mxGeometry x="330" y="70" width="40" height="50" as="geometry" />
        </mxCell>
        <mxCell id="JfajqlHU-OUBNJgmzbXL-23" value="Internet gateway" style="text;strokeColor=none;align=center;fillColor=none;html=1;verticalAlign=middle;whiteSpace=wrap;rounded=0;" vertex="1" parent="1">
          <mxGeometry x="668.25" y="260" width="60" height="30" as="geometry" />
        </mxCell>
        <mxCell id="JfajqlHU-OUBNJgmzbXL-28" value="" style="endArrow=classic;html=1;rounded=0;" edge="1" parent="1" source="JfajqlHU-OUBNJgmzbXL-8" target="JfajqlHU-OUBNJgmzbXL-3">
          <mxGeometry width="50" height="50" relative="1" as="geometry">
            <mxPoint x="610" y="391" as="sourcePoint" />
            <mxPoint x="443" y="415" as="targetPoint" />
          </mxGeometry>
        </mxCell>
        <mxCell id="JfajqlHU-OUBNJgmzbXL-34" value="Users" style="text;strokeColor=none;align=center;fillColor=none;html=1;verticalAlign=middle;whiteSpace=wrap;rounded=0;" vertex="1" parent="1">
          <mxGeometry x="370" y="80" width="60" height="30" as="geometry" />
        </mxCell>
        <mxCell id="JfajqlHU-OUBNJgmzbXL-3" value="" style="outlineConnect=0;dashed=0;verticalLabelPosition=bottom;verticalAlign=top;align=center;html=1;shape=mxgraph.aws3.ec2;fillColor=#F58534;gradientColor=none;" vertex="1" parent="1">
          <mxGeometry x="616.5" y="460" width="46.5" height="50" as="geometry" />
        </mxCell>
        <mxCell id="JfajqlHU-OUBNJgmzbXL-31" value="" style="endArrow=classic;html=1;rounded=0;exitX=0.5;exitY=1;exitDx=0;exitDy=0;exitPerimeter=0;" edge="1" parent="1" source="JfajqlHU-OUBNJgmzbXL-3" target="JfajqlHU-OUBNJgmzbXL-10">
          <mxGeometry width="50" height="50" relative="1" as="geometry">
            <mxPoint x="410" y="440" as="sourcePoint" />
            <mxPoint x="410" y="570" as="targetPoint" />
          </mxGeometry>
        </mxCell>
        <mxCell id="B8dhtAWKyEaFYcLBXjtr-6" value="" style="rounded=0;whiteSpace=wrap;html=1;labelBackgroundColor=none;dashed=1;container=0;pointerEvents=0;collapsible=0;recursiveResize=0;fillColor=none;strokeColor=#30B3FF;strokeWidth=2;shadow=0;fontStyle=1" parent="1" vertex="1">
          <mxGeometry x="470" y="320" width="310" height="430" as="geometry" />
        </mxCell>
        <mxCell id="JfajqlHU-OUBNJgmzbXL-38" value="" style="endArrow=classic;html=1;rounded=0;" edge="1" parent="1" source="B8dhtAWKyEaFYcLBXjtr-12" target="JfajqlHU-OUBNJgmzbXL-8">
          <mxGeometry width="50" height="50" relative="1" as="geometry">
            <mxPoint x="653" y="431" as="sourcePoint" />
            <mxPoint x="653" y="470" as="targetPoint" />
          </mxGeometry>
        </mxCell>
        <mxCell id="JfajqlHU-OUBNJgmzbXL-39" value="VPC" style="points=[[0,0],[0.25,0],[0.5,0],[0.75,0],[1,0],[1,0.25],[1,0.5],[1,0.75],[1,1],[0.75,1],[0.5,1],[0.25,1],[0,1],[0,0.75],[0,0.5],[0,0.25]];outlineConnect=0;gradientColor=none;html=1;whiteSpace=wrap;fontSize=12;fontStyle=0;container=0;pointerEvents=0;collapsible=0;recursiveResize=0;shape=mxgraph.aws4.group;grIcon=mxgraph.aws4.group_vpc2;strokeColor=#8C4FFF;fillColor=none;verticalAlign=top;align=left;spacingLeft=30;fontColor=#AAB7B8;dashed=0;" vertex="1" parent="1">
          <mxGeometry x="360" y="290" width="580" height="490" as="geometry" />
        </mxCell>
        <mxCell id="JfajqlHU-OUBNJgmzbXL-51" value="Availability Zone(ap-northeast-1a)" style="text;strokeColor=none;align=center;fillColor=none;html=1;verticalAlign=middle;whiteSpace=wrap;rounded=0;" vertex="1" parent="1">
          <mxGeometry x="430" y="290" width="190" height="30" as="geometry" />
        </mxCell>
        <mxCell id="JfajqlHU-OUBNJgmzbXL-57" value="" style="sketch=0;outlineConnect=0;fontColor=#232F3E;gradientColor=none;fillColor=#01A88D;strokeColor=none;dashed=0;verticalLabelPosition=bottom;verticalAlign=top;align=center;html=1;fontSize=12;fontStyle=0;aspect=fixed;shape=mxgraph.aws4.mainframe_modernization_developer;" vertex="1" parent="1">
          <mxGeometry x="212.25" y="562.5" width="45.25" height="45.25" as="geometry" />
        </mxCell>
        <mxCell id="JfajqlHU-OUBNJgmzbXL-58" value="&lt;div&gt;&lt;font style=&quot;font-size: 10px;&quot;&gt;Developer&lt;/font&gt;&lt;/div&gt;" style="text;html=1;align=center;verticalAlign=middle;whiteSpace=wrap;rounded=0;" vertex="1" parent="1">
          <mxGeometry x="190.13" y="607.75" width="89.5" height="12.25" as="geometry" />
        </mxCell>
        <mxCell id="JfajqlHU-OUBNJgmzbXL-61" value="" style="dashed=0;outlineConnect=0;html=1;align=center;labelPosition=center;verticalLabelPosition=bottom;verticalAlign=top;shape=mxgraph.weblogos.github" vertex="1" parent="1">
          <mxGeometry x="204.5" y="460" width="60.75" height="60" as="geometry" />
        </mxCell>
        <mxCell id="JfajqlHU-OUBNJgmzbXL-62" value="&lt;font style=&quot;font-size: 11px;&quot;&gt;GitHub&lt;/font&gt;" style="text;html=1;align=center;verticalAlign=middle;whiteSpace=wrap;rounded=0;" vertex="1" parent="1">
          <mxGeometry x="152.25" y="472.5" width="60" height="30" as="geometry" />
        </mxCell>
        <mxCell id="JfajqlHU-OUBNJgmzbXL-64" value="" style="outlineConnect=0;dashed=0;verticalLabelPosition=bottom;verticalAlign=top;align=center;html=1;shape=mxgraph.aws3.codepipeline;fillColor=#759C3E;gradientColor=none;" vertex="1" parent="1">
          <mxGeometry x="310" y="467.5" width="37.5" height="45" as="geometry" />
        </mxCell>
        <mxCell id="JfajqlHU-OUBNJgmzbXL-67" value="" style="endArrow=classic;html=1;rounded=0;" edge="1" parent="1" source="JfajqlHU-OUBNJgmzbXL-57" target="JfajqlHU-OUBNJgmzbXL-61">
          <mxGeometry width="50" height="50" relative="1" as="geometry">
            <mxPoint x="659" y="401" as="sourcePoint" />
            <mxPoint x="659" y="440" as="targetPoint" />
          </mxGeometry>
        </mxCell>
        <mxCell id="JfajqlHU-OUBNJgmzbXL-68" value="" style="endArrow=classic;html=1;rounded=0;entryX=0.065;entryY=0.395;entryDx=0;entryDy=0;entryPerimeter=0;" edge="1" parent="1" source="JfajqlHU-OUBNJgmzbXL-64" target="B8dhtAWKyEaFYcLBXjtr-6">
          <mxGeometry width="50" height="50" relative="1" as="geometry">
            <mxPoint x="245" y="573" as="sourcePoint" />
            <mxPoint x="245" y="530" as="targetPoint" />
          </mxGeometry>
        </mxCell>
        <mxCell id="JfajqlHU-OUBNJgmzbXL-69" value="" style="endArrow=classic;html=1;rounded=0;" edge="1" parent="1" source="JfajqlHU-OUBNJgmzbXL-61" target="JfajqlHU-OUBNJgmzbXL-64">
          <mxGeometry width="50" height="50" relative="1" as="geometry">
            <mxPoint x="245" y="573" as="sourcePoint" />
            <mxPoint x="245" y="530" as="targetPoint" />
          </mxGeometry>
        </mxCell>
        <mxCell id="JfajqlHU-OUBNJgmzbXL-70" value="&lt;div&gt;&lt;font style=&quot;font-size: 10px;&quot;&gt;AWS&lt;/font&gt;&lt;/div&gt;&lt;div&gt;&lt;font style=&quot;font-size: 10px;&quot;&gt;CodePipeline&lt;br&gt;&lt;/font&gt;&lt;/div&gt;" style="text;html=1;align=center;verticalAlign=middle;whiteSpace=wrap;rounded=0;" vertex="1" parent="1">
          <mxGeometry x="298.13" y="512.5" width="61.25" height="30" as="geometry" />
        </mxCell>
      </root>
    </mxGraphModel>
  </diagram>
</mxfile>
